#!OML:ASF H:\Terrain\Patient Classification 1\Walking\liu\liu.ASF
:FULLY-SPECIFIED
:DEGREES
79
root 9.01179 16.3741 -19.2443 7.01686 1.11762 4.22924
lowerback -1.92548 -2.44086 -6.0031
upperback 0.63867 -3.11493 0.95328
thorax 2.11457 -1.63883 4.22325
lowerneck -19.8785 -3.11494 -12.5356
upperneck 17.2975 -3.5806 13.8356
head 9.19884 -1.03277 6.46008
rclavicle 8.05078e-015 -9.14409e-015
rhumerus -47.8684 12.9282 -87.1531
rradius 33.1068
rwrist -17.6529
rhand -32.6779 -22.9018
rfingers 7.12502
rthumb -5.90322 -52.7995
lclavicle 8.05078e-015 -9.14409e-015
lhumerus -21.6775 -16.3605 85.6111
lradius 31.5665
lwrist 8.21088
lhand -13.6978 -25.5151
lfingers 7.12502
lthumb 12.4205 4.0959
rfemur -37.3599 0.567721 17.063
rtibia 59.432
rfoot -17.0002 -10.6897
rtoes -13.1148
lfemur -11.3021 3.51521 -28.4623
ltibia 25.3675
lfoot -19.0499 5.07028
ltoes -5.29616
80
root 9.01457 16.3698 -19.0579 7.0149 1.52974 4.39399
lowerback -1.94579 -2.60421 -6.18629
upperback 0.707176 -3.32545 0.982083
thorax 2.23482 -1.75198 4.34208
lowerneck -19.6543 -3.05753 -12.7553
upperneck 16.9873 -3.46726 13.998
head 9.0423 -0.984689 6.55856
rclavicle -1.66979e-014 1.66979e-014
rhumerus -48.3309 12.8714 -87.0189
rradius 33.0856
rwrist -18.4869
rhand -33.0996 -20.0219
rfingers 7.12502
rthumb -6.31036 -49.9079
lclavicle -1.66979e-014 1.66979e-014
lhumerus -20.528 -16.6108 85.4234
lradius 31.8094
lwrist 7.94341
lhand -13.8862 -25.7513
lfingers 7.12502
lthumb 12.2388 3.87062
rfemur -38.1 0.707332 16.7269
rtibia 57.2849
rfoot -17.975 -10.236
rtoes -15.0723
lfemur -9.86574 2.98417 -28.5629
ltibia 24.0778
lfoot -19.3205 5.30818
ltoes -5.16938
81
root 9.02011 16.3693 -18.8671 6.95484 1.89127 4.61937
lowerback -1.95276 -2.7155 -6.32563
upperback 0.746603 -3.46871 0.986205
thorax 2.30621 -1.82871 4.41519
lowerneck -19.6053 -3.15381 -12.9363
upperneck 17.001 -3.52091 13.8449
head 9.04602 -1.03938 6.52617
rclavicle -2.73329e-015 9.14409e-015
rhumerus -48.7066 12.4344 -86.409
rradius 33.3778
rwrist -19.5111
rhand -31.3075 -20.4759
rfingers 7.12502
rthumb -4.58006 -50.4063
lclavicle -2.73329e-015 9.14409e-015
lhumerus -19.6166 -16.9259 85.3153
lradius 32.1595
lwrist 7.73267
lhand -13.8397 -25.959
lfingers 7.12502
lthumb 12.2836 3.6602
rfemur -38.702 0.771413 16.2717
rtibia 55.0629
rfoot -18.4708 -9.97166
rtoes -15.6282
lfemur -8.26065 2.77769 -28.7479
ltibia 22.6538
lfoot -19.1878 5.38335
ltoes -5.42188
82
root 9.02569 16.3786 -18.6757 6.78382 2.1444 4.72058
lowerback -1.8614 -2.80472 -6.34451
upperback 0.80111 -3.59176 0.976157
thorax 2.32734 -1.89242 4.41143
lowerneck -19.7342 -3.18701 -12.8002
upperneck 17.2545 -3.52826 13.4512
head 9.14583 -1.07089 6.36748
rclavicle 2.06239e-014 -7.95139e-016
rhumerus -49.4396 12.2137 -85.9305
rradius 34.2967
rwrist -20.4659
rhand -29.083 -21.046
rfingers 7.12502
rthumb -2.43188 -51.0119
lclavicle 2.06239e-014 -7.95139e-016
lhumerus -18.8617 -17.8959 85.0477
lradius 32.836
lwrist 8.35769
lhand -13.5174 -25.6749
lfingers 7.12502
lthumb 12.5944 3.92541
rfemur -39.1825 1.01267 15.8845
rtibia 52.7564
rfoot -18.7393 -9.99566
rtoes -15.5336
lfemur -6.50793 2.66833 -28.7968
ltibia 21.1842
lfoot -19.0125 5.38278
ltoes -4.63013
83
root 9.02574 16.3803 -18.485 6.86662 2.41666 4.80002
lowerback -2.00772 -2.99224 -6.39237
upperback 0.836168 -3.8289 0.941649
thorax 2.47665 -2.01657 4.37998
lowerneck -19.9756 -3.05835 -12.5059
upperneck 17.4452 -3.36924 13.1981
head 9.22055 -0.995881 6.2549
rclavicle 2.39536e-014 -1.03368e-014
rhumerus -50.9162 13.1385 -86.732
rradius 35.9296
rwrist -20.6152
rhand -31.4325 -23.708
rfingers 7.12502
rthumb -4.70073 -53.6359
lclavicle 2.39536e-014 -1.03368e-014
lhumerus -17.9599 -19.1752 84.5203
lradius 33.5004
lwrist 9.39265
lhand -13.4078 -25.5608
lfingers 7.12502
lthumb 12.7 4.03301
rfemur -39.8979 1.49195 15.4491
rtibia 50.3559
rfoot -18.7809 -10.1294
rtoes -14.6097
lfemur -5.05441 2.31884 -28.8006
ltibia 19.7042
lfoot -19.0119 5.51053
ltoes -3.62648
84
root 9.02345 16.3649 -18.2951 7.0704 2.73622 4.94766
lowerback -2.22856 -3.23058 -6.55947
upperback 0.8679 -4.12481 0.908994
thorax 2.68095 -2.17349 4.40753
lowerneck -20.3821 -2.9002 -12.2178
upperneck 17.5539 -3.17239 13.0778
head 9.29557 -0.884612 6.19671
rclavicle 2.33075e-014 7.95139e-016
rhumerus -51.3901 13.0134 -86.5614
rradius 36.2989
rwrist -20.6644
rhand -31.4752 -23.8892
rfingers 7.12502
rthumb -4.74198 -53.8161
lclavicle 2.33075e-014 7.95139e-016
lhumerus -16.8387 -19.6699 83.9578
lradius 33.7773
lwrist 9.44606
lhand -13.6862 -26.1136
lfingers 7.12502
lthumb 12.4317 3.49665
rfemur -40.6006 1.93912 14.9152
rtibia 47.864
rfoot -18.9092 -10.0393
rtoes -13.0508
lfemur -3.78185 1.91699 -28.8775
ltibia 18.2401
lfoot -19.0031 5.64758
ltoes -2.63873
85
root 9.02502 16.3492 -18.1036 7.05615 3.0099 4.99868
lowerback -2.29707 -3.37789 -6.63426
upperback 0.95469 -4.3115 0.903379
thorax 2.83898 -2.27496 4.42376
lowerneck -20.1208 -2.79334 -12.2014
upperneck 17.2085 -3.06548 13.2432
head 9.1171 -0.823017 6.25246
rclavicle 6.9674e-014 -5.1684e-015
rhumerus -51.1482 12.3598 -85.9614
rradius 35.4147
rwrist -20.6361
rhand -31.404 -21.5472
rfingers 7.12502
rthumb -4.67329 -51.4756
lclavicle 6.9674e-014 -5.1684e-015
lhumerus -15.7821 -19.6136 83.5026
lradius 34.0082
lwrist 8.90081
lhand -13.6833 -26.2811
lfingers 7.12502
lthumb 12.4345 3.32898
rfemur -40.9736 2.41704 14.4184
rtibia 45.3291
rfoot -19.1983 -9.69201
rtoes -11.7367
lfemur -2.26671 1.77238 -28.8671
ltibia 16.7589
lfoot -18.8622 5.65756
ltoes -1.82117
86
root 9.02918 16.3373 -17.9091 7.02086 3.27221 5.1788
lowerback -2.32004 -3.41134 -6.74515
upperback 0.974675 -4.34916 0.862156
thorax 2.88298 -2.29706 4.43803
lowerneck -19.3578 -2.85661 -12.6214
upperneck 16.7233 -3.15566 13.6224
head 8.84137 -0.877 6.42406
rclavicle -5.55603e-014 -2.38542e-015
rhumerus -51.7219 12.1276 -85.675
rradius 35.6625
rwrist -21.2745
rhand -31.5681 -20.1336
rfingers 7.12502
rthumb -4.8317 -50.0585
lclavicle -5.55603e-014 -2.38542e-015
lhumerus -14.9909 -20.561 83.2497
lradius 34.4993
lwrist 8.92898
lhand -13.9888 -26.0576
lfingers 7.12502
lthumb 12.1399 3.57017
rfemur -41.3465 2.95352 13.6752
rtibia 42.8372
rfoot -19.2766 -9.47526
rtoes -11.5612
lfemur -0.562847 1.73215 -29.0091
ltibia 15.0814
lfoot -18.8727 5.61144
ltoes -2.36462
87
root 9.03406 16.3252 -17.7127 7.16688 3.54348 5.54075
lowerback -2.54459 -3.52801 -7.01234
upperback 0.966156 -4.4773 0.79772
thorax 3.03355 -2.36929 4.49704
lowerneck -19.5124 -2.91653 -12.6203
upperneck 16.9017 -3.19206 13.4148
head 8.93103 -0.910833 6.35167
rclavicle 5.76476e-015 8.74653e-015
rhumerus -52.3977 11.8027 -85.2727
rradius 36.3094
rwrist -21.6597
rhand -31.0789 -19.537
rfingers 7.12502
rthumb -4.35933 -49.4721
lclavicle 5.76476e-015 8.74653e-015
lhumerus -14.2522 -21.7001 82.9063
lradius 35.0849
lwrist 9.21502
lhand -14.4262 -26.1576
lfingers 7.12502
lthumb 11.7181 3.49461
rfemur -41.9451 3.34375 12.7081
rtibia 40.4599
rfoot -19.2911 -9.26305
rtoes -13.3328
lfemur 1.22209 1.69601 -29.3423
ltibia 12.9735
lfoot -18.7353 5.51572
ltoes -3.16186
88
root 9.03681 16.3124 -17.5183 7.39983 3.83838 5.74675
lowerback -2.8512 -3.78347 -7.18237
upperback 1.01448 -4.78616 0.790503
thorax 3.31196 -2.53635 4.53805
lowerneck -20.1583 -2.84312 -12.4532
upperneck 17.277 -3.04692 13.1882
head 9.1472 -0.836389 6.28157
rclavicle 2.68359e-014 1.86858e-014
rhumerus -52.5062 11.6181 -84.9538
rradius 36.3267
rwrist -21.8506
rhand -30.2459 -17.8309
rfingers 7.12502
rthumb -3.55494 -47.781
lclavicle 2.68359e-014 1.86858e-014
lhumerus -13.2816 -22.2465 82.2741
lradius 35.53
lwrist 9.7989
lhand -14.4355 -26.2836
lfingers 7.12502
lthumb 11.7092 3.36917
rfemur -42.6793 3.82701 11.8116
rtibia 38.2331
rfoot -19.6552 -8.85548
rtoes -15.3902
lfemur 3.16602 1.72949 -29.4727
ltibia 10.2528
lfoot -17.91 5.57682
ltoes -3.53721
89
root 9.03638 16.3085 -17.323 7.55963 4.17982 5.72455
lowerback -3.04017 -4.00866 -7.11554
upperback 1.05694 -5.07384 0.808977
thorax 3.49742 -2.68537 4.48103
lowerneck -20.2382 -2.78289 -12.6899
upperneck 17.3094 -2.95756 13.5215
head 9.16913 -0.773397 6.46043
rclavicle 9.88954e-015 9.54166e-015
rhumerus -52.6969 11.879 -84.9701
rradius 36.3704
rwrist -22.2048
rhand -29.2215 -17.8901
rfingers 7.12502
rthumb -2.56566 -47.8544
lclavicle 9.88954e-015 9.54166e-015
lhumerus -12.1905 -23.0064 81.609
lradius 35.8108
lwrist 10.7505
lhand -14.4347 -26.2742
lfingers 7.12502
lthumb 11.71 3.37849
rfemur -43.3492 4.70318 10.9256
rtibia 36.1987
rfoot -20.5165 -8.63762
rtoes -16.0733
lfemur 5.73036 1.66476 -29.3345
ltibia 6.37921
lfoot -16.5096 5.94322
ltoes -4.13364
90
root 9.03823 16.3014 -17.1217 7.67216 4.5593 5.81647
lowerback -3.22903 -4.17409 -7.0683
upperback 1.0099 -5.28174 0.758134
thorax 3.57316 -2.78781 4.37201
lowerneck -19.8298 -2.71504 -12.8803
upperneck 17.1153 -2.89331 13.7794
head 9.02635 -0.74134 6.58388
rclavicle -5.1684e-015 7.55382e-015
rhumerus -53.0946 11.3601 -84.4822
rradius 36.5357
rwrist -21.3569
rhand -28.8426 -21.3973
rfingers 7.12502
rthumb -2.19965 -51.3657
lclavicle -5.1684e-015 7.55382e-015
lhumerus -11.4247 -23.4384 81.2121
lradius 36.1195
lwrist 10.9892
lhand -14.3864 -26.3389
lfingers 7.12502
lthumb 11.7565 3.31117
rfemur -43.962 5.78573 9.70995
rtibia 34.3879
rfoot -21.2385 -8.71166
rtoes -15.9513
lfemur 9.73161 1.55646 -29.331
ltibia 3.18055e-015
lfoot -14.1102 5.99661
ltoes -3.83219
91
root 9.03896 16.2669 -16.9218 7.83847 5.0175 6.29065
lowerback -3.37227 -4.37696 -7.42939
upperback 0.893311 -5.52432 0.632878
thorax 3.58716 -2.91099 4.41387
lowerneck -19.6888 -2.62473 -12.6767
upperneck 17.2925 -2.81074 13.5529
head 9.04144 -0.717339 6.48115
rclavicle -4.42296e-015 -9.54166e-015
rhumerus -53.4054 10.194 -83.5
rradius 36.5198
rwrist -20.0037
rhand -29.6322 -23.753
rfingers 7.12502
rthumb -2.96228 -53.7121
lclavicle -4.42296e-015 -9.54166e-015
lhumerus -10.9226 -23.4384 80.9933
lradius 36.5178
lwrist 10.9196
lhand -14.408 -26.3881
lfingers 7.12502
lthumb 11.7357 3.2632
rfemur -44.7218 6.97516 7.84719
rtibia 32.8278
rfoot -22.0439 -9.12244
rtoes -17.2477
lfemur 10.4248 1.31995 -29.7082
ltibia -5.725e-014
lfoot -14.7966 5.70443
ltoes -1.97657
92
root 9.03372 16.2246 -16.7265 7.98732 5.48166 6.82959
lowerback -3.35915 -4.64355 -7.99503
upperback 0.813452 -5.85516 0.539073
thorax 3.59035 -3.08331 4.60184
lowerneck -19.9731 -2.53756 -12.2586
upperneck 17.7787 -2.72357 13.1018
head 9.23294 -0.688351 6.27777
rclavicle -7.50412e-014 7.15625e-015
rhumerus -53.3864 9.60311 -82.8383
rradius 35.9441
rwrist -19.5977
rhand -30.0751 -22.2128
rfingers 7.12502
rthumb -3.39 -52.1656
lclavicle -7.50412e-014 7.15625e-015
lhumerus -10.4531 -23.4979 80.675
lradius 36.9542
lwrist 11.3348
lhand -14.6459 -26.4306
lfingers 7.12502
lthumb 11.5063 3.23362
rfemur -45.5651 8.50109 5.63841
rtibia 31.5573
rfoot -23.1863 -9.96984
rtoes -19.8014
lfemur 11.034 1.06908 -30.1207
ltibia -2.54444e-014
lfoot -15.278 5.62568
ltoes -1.65953
